<svg xmlns="http://www.w3.org/2000/svg" viewBox="0 0 19.15 19.15"><defs><style>.cls-1{fill:#221c1d;}</style></defs><title>arrow-left</title><g id="Layer_2" data-name="Layer 2"><g id="About_us" data-name="About us"><path class="cls-1" d="M7.41,9.45l4.07-4.08h0a.18.18,0,0,1,.26,0,.19.19,0,0,1,0,.26l-3.95,4,4,3.95a.18.18,0,0,1,0,.25.19.19,0,0,1-.27,0L7.41,9.71a.17.17,0,0,1,0-.26Z"/><path class="cls-1" d="M0,9.58A9.58,9.58,0,1,0,9.58,0,9.59,9.59,0,0,0,0,9.58Zm.74,0a8.84,8.84,0,1,1,8.84,8.84A8.83,8.83,0,0,1,.74,9.58Z"/></g></g></svg>