<svg xmlns="http://www.w3.org/2000/svg" viewBox="0 0 19.15 19.15"><defs><style>.cls-1{fill:#221c1d;}</style></defs><title>arrow-right</title><g id="Layer_2" data-name="Layer 2"><g id="About_us" data-name="About us"><path class="cls-1" d="M11.8,9.58a.19.19,0,0,1-.05.13L7.67,13.79a.18.18,0,0,1-.26,0,.18.18,0,0,1,0-.25l3.95-3.95L7.41,5.63a.18.18,0,0,1,0-.26.19.19,0,0,1,.27,0h0l4.08,4.08A.19.19,0,0,1,11.8,9.58Z"/><path class="cls-1" d="M9.58,0a9.58,9.58,0,1,0,9.57,9.58A9.59,9.59,0,0,0,9.58,0Zm0,18.42a8.84,8.84,0,1,1,8.84-8.84A8.84,8.84,0,0,1,9.58,18.42Z"/></g></g></svg>