<svg xmlns="http://www.w3.org/2000/svg" viewBox="0 0 33.46 40.83"><defs><style>.cls-1{fill:#221c1d;}</style></defs><title>icon-gorecery-bags-black</title><g id="Layer_2" data-name="Layer 2"><g id="Waste_Audit" data-name="Waste Audit"><path class="cls-1" d="M4.89,19.14H3.66V35.2L2.24,40.83H33.46L32.05,35.2V11.86l-1.17.43a27,27,0,0,0-1.8-8L28,4.72a26.22,26.22,0,0,1,1.73,8l-1,.35-2.72-1-2.71,1-2.72-1-.6.22,0,0a7.49,7.49,0,0,0,1.34-2.2c.7-1.72.94-3.79-.2-4.3,1-2.76,2.31-4.44,3.6-4.44S27,2.79,27.44,3.67l1.09-.59c-1.07-2-2.38-3-3.78-3-2,0-3.81,2.14-5,5.9a4.91,4.91,0,0,0-.52.46,7.41,7.41,0,0,0-1.33,2.21c-.06.13-.11.28-.16.42L17.2,7.32a2.51,2.51,0,0,0,1-.71A7.55,7.55,0,0,0,19.54,4.4a7.44,7.44,0,0,0,.59-2.51c0-1.26-.5-1.68-.82-1.81s-1-.22-1.86.71A7.55,7.55,0,0,0,16.11,3a8.53,8.53,0,0,0-.46,1.5,8.94,8.94,0,0,0-1.25-1,7.59,7.59,0,0,0-2.37-1c-1.24-.25-1.74.21-1.93.5-.37.59-.12,1.32.44,2h-.1A5.47,5.47,0,0,0,7.3,6L5.47,3.9l-.94.81,1,1.18a4.14,4.14,0,0,0-2.64-.12C1,6.41.18,8.81.15,8.91L0,9.36l.39.26a6.06,6.06,0,0,0,3,1,3.26,3.26,0,0,0,1.06-.17,2,2,0,0,0,.4-.17c0,.11,0,.22,0,.33a5.45,5.45,0,0,0,.31,1.8l-1.53-.55v6.07H4.89V13.62l2.1.77,2.72-1,2.1.76,0,21.29v.06l.87,4.09H3.82l1.07-4.25Zm14.17-10a4.27,4.27,0,0,1,1.58-2.21,4.34,4.34,0,0,1-.44,2.68,4.32,4.32,0,0,1-1.57,2.22l0-.12a5,5,0,0,1,.47-2.57Zm-1.2,5.27,2.71-1,2.72,1,2.71-1,2.72,1,2.1-.77v21H20.32V35.9H31l.92,3.7H14l-.79-3.7h5.87V34.66h-6L13,14.16l2.1-.76ZM17.25,3.47a4.27,4.27,0,0,1,1.58-2.22,4.38,4.38,0,0,1-.43,2.68,4.37,4.37,0,0,1-1.58,2.22l0-.12a4.93,4.93,0,0,1,.47-2.56ZM16,7.7,17.72,13l-2-.72A5.63,5.63,0,0,0,16,10.61a5.52,5.52,0,0,0-.79-2.85h.26A1.93,1.93,0,0,0,16,7.7ZM13.74,4.59a4.85,4.85,0,0,1,1.87,1.82l0,.12a4.34,4.34,0,0,1-2.56-.9A4.25,4.25,0,0,1,11.17,3.7a4.26,4.26,0,0,1,2.57.89Zm-7.95,3a4.48,4.48,0,0,0-.28.47A2.9,2.9,0,0,1,4.09,9.28a3.6,3.6,0,0,1-2.58-.43,3.6,3.6,0,0,1,1.8-1.91,3.55,3.55,0,0,1,2.58.44Zm6.63,5.49-2.71-1L7,13.07,6.86,13a4.21,4.21,0,0,1-.74-2.41,4.29,4.29,0,0,1,.47-2l.27-.45a4.32,4.32,0,0,1,7.54,4.15Z"/><path class="cls-1" d="M22.68,6.18,27,5.45l.2,1.22-4.36.72Z"/><path class="cls-1" d="M22.68,9.88,27,9.16l.2,1.22-4.36.72Z"/></g></g></svg>