<svg xmlns="http://www.w3.org/2000/svg" viewBox="0 0 18.03 22"><defs><style>.cls-1{fill:#c0bbb2;}</style></defs><title>icon-gorecery-bags</title><g id="Layer_2" data-name="Layer 2"><g id="Main_Page" data-name="Main Page"><path class="cls-1" d="M2.64,10.31H2V19l-.76,3H18l-.76-3V6.39l-.63.23a14.57,14.57,0,0,0-1-4.34l-.61.27A14.21,14.21,0,0,1,16,6.85L15.47,7,14,6.51,12.55,7l-1.47-.53-.32.12,0,0a4,4,0,0,0,.72-1.19c.38-.93.51-2-.11-2.32C11.91,1.62,12.64.71,13.33.71s1.2.79,1.45,1.27l.59-.32C14.79.6,14.09.05,13.33.05c-1.08,0-2.05,1.15-2.68,3.18a1.53,1.53,0,0,0-.28.25,4.16,4.16,0,0,0-.72,1.18,2.09,2.09,0,0,0-.08.23L9.26,4a1.48,1.48,0,0,0,.55-.39,4.09,4.09,0,0,0,.72-1.19A4.31,4.31,0,0,0,10.85,1c0-.68-.27-.9-.45-1s-.54-.11-1,.39a4,4,0,0,0-.72,1.18,4.66,4.66,0,0,0-.25.81,4.92,4.92,0,0,0-.67-.51,4.19,4.19,0,0,0-1.28-.55c-.67-.14-.94.11-1,.27-.2.31-.06.71.24,1.09h0a3,3,0,0,0-1.7.53l-1-1.15-.5.44L3,3.17a2.21,2.21,0,0,0-1.42-.06A2.86,2.86,0,0,0,.08,4.8L0,5l.21.14a3.25,3.25,0,0,0,1.64.54,1.62,1.62,0,0,0,.57-.09l.22-.09a1,1,0,0,0,0,.17,3.19,3.19,0,0,0,.16,1L2,6.39V9.66h.67V7.34l1.13.41,1.46-.53,1.13.41,0,11.47v0l.47,2.2H2.06l.58-2.28Zm7.63-5.39a2.35,2.35,0,0,1,.85-1.2,2.38,2.38,0,0,1-.24,1.45A2.3,2.3,0,0,1,10,6.36l0-.06a2.56,2.56,0,0,1,.25-1.38ZM9.62,7.75l1.46-.53,1.47.53L14,7.22l1.46.53,1.13-.41V18.67H11v.67h5.73l.5,2H7.54l-.43-2h3.16v-.67H7.05l0-11,1.13-.41ZM9.3,1.87a2.41,2.41,0,0,1,.84-1.2,2.27,2.27,0,0,1-.23,1.45,2.3,2.3,0,0,1-.85,1.19l0-.06A2.61,2.61,0,0,1,9.3,1.87ZM8.63,4.15,9.55,7,8.48,6.63a3.16,3.16,0,0,0,.14-.92A3.05,3.05,0,0,0,8.2,4.18h.14a.92.92,0,0,0,.29,0ZM7.4,2.47a2.66,2.66,0,0,1,1,1l0,.07A2.35,2.35,0,0,1,7,3,2.28,2.28,0,0,1,6,2a2.38,2.38,0,0,1,1.38.48ZM3.12,4.08A1.35,1.35,0,0,0,3,4.34,1.58,1.58,0,0,1,2.21,5a2,2,0,0,1-1.4-.23,2,2,0,0,1,1-1A1.92,1.92,0,0,1,3.17,4,.54.54,0,0,1,3.12,4.08ZM6.69,7,5.23,6.51,3.77,7,3.69,7a2.37,2.37,0,0,1-.14-2.36l.14-.24A2.33,2.33,0,0,1,8,5.71a2.37,2.37,0,0,1-.19,1Z"/><path class="cls-1" d="M12.22,3.33l2.35-.39.11.65L12.33,4Z"/><path class="cls-1" d="M12.22,5.33l2.35-.4.11.66L12.33,6Z"/></g></g></svg>