<svg xmlns="http://www.w3.org/2000/svg" viewBox="0 0 4.23 4.54"><defs><style>.cls-1{fill:#221c1d;}</style></defs><title>icon-phone</title><g id="Layer_2" data-name="Layer 2"><g id="Footer"><path class="cls-1" d="M0,1.38a1.41,1.41,0,0,1,.4-1C.51.26.62.16.74.07a.3.3,0,0,1,.41,0,.86.86,0,0,1,.13.14,2.82,2.82,0,0,1,.37.63.42.42,0,0,1-.12.5,2.17,2.17,0,0,1-.29.24A.35.35,0,0,0,1.11,2a1.05,1.05,0,0,0,.22.45A3.37,3.37,0,0,0,2,3.15a.89.89,0,0,0,.37.2.33.33,0,0,0,.33-.09L2.92,3A.45.45,0,0,1,3.47,3a2.2,2.2,0,0,1,.25.17l.36.33a.42.42,0,0,1,.11.15A.27.27,0,0,1,4.14,4a2,2,0,0,1-.47.39,1.39,1.39,0,0,1-.72.2,2,2,0,0,1-1-.32A4.57,4.57,0,0,1,.88,3.27a4.91,4.91,0,0,1-.63-.93A2.14,2.14,0,0,1,0,1.38Z"/></g></g></svg>