<svg xmlns="http://www.w3.org/2000/svg" viewBox="0 0 23.45 11.53"><defs><style>.cls-1{fill:#151011;}</style></defs><title>icon-integrity</title><g id="Layer_2" data-name="Layer 2"><g id="About_us" data-name="About us"><path class="cls-1" d="M0,6.81c.15-.43.23-.89.34-1.34C.53,4.73.69,4,.87,3.23c.24-1,.48-2,.71-3,0-.13.08-.15.18-.12L4.33.9c.08,0,.12,0,.09.16C4.1,2.64,3.66,4.2,3.29,5.77,3.14,6.38,3,7,2.84,7.59c0,.2-.13.16-.24.13L1.24,7.3,0,6.93Z"/><path class="cls-1" d="M18.34,7c-.12,0-.27,0-.35,0s0,.22,0,.34a1.67,1.67,0,0,1-1,1.71.68.68,0,0,0-.42.44,1.58,1.58,0,0,1-.93.88.66.66,0,0,1-.5,0,.19.19,0,0,0-.25.1,1.46,1.46,0,0,1-.94.7,1.11,1.11,0,0,1-.64-.13L13,11a.14.14,0,0,0-.18,0,1.1,1.1,0,0,1-1.32.24c-.15-.06-.32-.1-.48-.17a.16.16,0,0,0-.24.08.63.63,0,0,1-1,.2,1.66,1.66,0,0,1-.3-.22c-.12-.14-.23-.27-.15-.48a.62.62,0,0,0,0-.13s-.09,0-.11,0c-.35.28-.68.13-1,0a1.55,1.55,0,0,1-.37-.26.48.48,0,0,1-.09-.64s.07-.08,0-.12-.1,0-.15,0a.15.15,0,0,0-.07,0A.41.41,0,0,1,7,9.41,1.63,1.63,0,0,1,6.68,9a.58.58,0,0,1-.06-.58.16.16,0,0,0,0-.15.09.09,0,0,0-.11,0A.49.49,0,0,1,5.92,8a.7.7,0,0,1-.25-.77c0-.07,0-.09-.08-.09a1.5,1.5,0,0,0-.3,0c-.19,0-.2-.06-.16-.21.11-.54.24-1.08.34-1.63.19-1,.43-2.06.57-3.1,0-.07,0-.14.1-.11.31.12.53,0,.75-.22A13.84,13.84,0,0,1,10.3,0a1.19,1.19,0,0,1,.62,0,10.18,10.18,0,0,1,1.52.45.58.58,0,0,0,.43,0,1.33,1.33,0,0,1,1.21,0A15.84,15.84,0,0,1,16.3,1.84a3.31,3.31,0,0,1,.34.3.77.77,0,0,0,.65.26c.12,0,.17,0,.19.16.17,1.09.41,2.17.62,3.25ZM12,.73A9,9,0,0,0,10.76.39a1,1,0,0,0-.6,0A14.59,14.59,0,0,0,6.91,2.31a.8.8,0,0,1-.43.19c-.11,0-.14.06-.16.16-.21,1.25-.47,2.5-.72,3.75-.09.44-.09.43.35.46a.33.33,0,0,0,.18-.07,3.73,3.73,0,0,1,.37-.23.65.65,0,0,1,.76.17c.16.19.14.37-.06.65L6.78,8s-.07.08,0,.12.07,0,.1,0l.48-.47A5.34,5.34,0,0,1,8,7a.78.78,0,0,1,.9,0,.46.46,0,0,1,.19.7l-.17.25-1,1.35s-.11.1,0,.15S8,9.34,8,9.3c.36-.39.72-.79,1.09-1.18l.49-.49a.45.45,0,0,1,.53-.08.92.92,0,0,1,.43,1.12,3.16,3.16,0,0,1-.42.71l-.63.88s-.07.07,0,.11.07,0,.1,0l.13-.14a5.86,5.86,0,0,1,.68-.64.39.39,0,0,1,.54,0,.74.74,0,0,1,.33.48,1,1,0,0,1-.14.64c0,.08,0,.13.06.17a3.88,3.88,0,0,0,.76.21.89.89,0,0,0,.55-.11c.1-.06.14-.11,0-.19-.34-.23-.67-.47-1-.71-.06,0-.13-.11-.07-.18s.12,0,.16,0a15,15,0,0,0,1.56.9,1,1,0,0,0,1.42-.36c.06-.08.06-.12,0-.17-.49-.27-.95-.59-1.42-.91s-.73-.54-1.1-.81c0,0-.1,0-.06-.1s.09-.06.15,0l.12.06a10.51,10.51,0,0,1,1.3.76,10.59,10.59,0,0,0,1.47.82.63.63,0,0,0,.52,0,1.49,1.49,0,0,0,.78-.78c0-.09,0-.15-.08-.19A9,9,0,0,1,15,8.49c-.63-.39-1.22-.84-1.81-1.28,0,0-.11,0-.07-.1a.1.1,0,0,1,.15,0l.09,0a6.84,6.84,0,0,1,1.06.59,10,10,0,0,0,2.1,1.1.32.32,0,0,0,.27,0,1.37,1.37,0,0,0,.83-1.06.54.54,0,0,0-.31-.63,14.69,14.69,0,0,1-3.57-2.59,5.11,5.11,0,0,1-1-1.32c-.08-.14-.06-.2.08-.27a1.27,1.27,0,0,0,.51-1.05.27.27,0,0,0-.12.18,1.14,1.14,0,0,1-1,.83l-.25,0c-.12,0-.26.1-.34,0s0-.2,0-.31,0-.09,0-.1-.06,0-.07.08a3.14,3.14,0,0,1-.23.53A2,2,0,0,1,9.17,4.34a1.19,1.19,0,0,1-.79-.28.3.3,0,0,1-.07-.41A6.76,6.76,0,0,1,8.75,3a8.2,8.2,0,0,0,1-1.23,1.3,1.3,0,0,1,1-.68A10.38,10.38,0,0,0,12,.73Z"/><path class="cls-1" d="M23.45,7.11c0,.1-.06.12-.12.14l-1.59.48-.9.27c-.14.06-.19,0-.22-.12-.18-.77-.37-1.54-.56-2.31-.24-1-.49-1.95-.73-2.93-.11-.43-.2-.86-.3-1.3,0-.09,0-.14.11-.17C20,.92,20.85.68,21.7.42c.12,0,.17,0,.19.13L23,5.25,23.42,7Z"/><path class="cls-1" d="M20.11,7.33c0,.08-.05.08-.11.09l-1.12.26c-.1,0-.12,0-.13-.12-.09-.45-.18-.9-.28-1.35-.14-.68-.28-1.37-.41-2s-.23-1.2-.34-1.8c0-.07,0-.11.09-.13L18.73,2c.1,0,.1,0,.11.11l.39,1.68c.24,1,.48,2,.73,2.92C20,6.91,20.05,7.11,20.11,7.33Z"/><path class="cls-1" d="M5.73,2.11c-.07.4-.14.8-.22,1.2C5.26,4.55,5,5.78,4.77,7c-.08.39-.07.39-.46.31s-.55-.12-.82-.18S3.34,7.1,3.37,7c.29-1.16.58-2.31.86-3.47.13-.54.26-1.09.37-1.64,0-.12.07-.16.19-.13l.8.19C5.7,2,5.75,2,5.73,2.11Z"/></g></g></svg>