<svg xmlns="http://www.w3.org/2000/svg" viewBox="0 0 14.67 11.53"><defs><style>.cls-1{fill:#151011;}</style></defs><title>icon-accountable</title><g id="Layer_2" data-name="Layer 2"><g id="About_us" data-name="About us"><path class="cls-1" d="M10.28,8.48l.2.14a.61.61,0,0,1-.07,1.08,1.53,1.53,0,0,1-.75.17l-1.43,0A5.09,5.09,0,0,0,6.68,10h0a0,0,0,0,1,0,0,7.21,7.21,0,0,1,.9-.19c.51,0,1,0,1.54-.07.31,0,.62,0,.93-.08a1,1,0,0,0,.29-.12.38.38,0,0,0,0-.67,2.4,2.4,0,0,0-.63-.29,12.37,12.37,0,0,0-1.57-.38,4.3,4.3,0,0,1-1-.34,9.51,9.51,0,0,0-1.23-.44,3.4,3.4,0,0,0-1.76.1c-.31.07-.61.18-.92.25a1.19,1.19,0,0,1-.42,0L.9,7.39a.25.25,0,0,0-.19.05,1.7,1.7,0,0,0-.27.33A3.76,3.76,0,0,0,0,10c.06.38.09.42.47.44a26.47,26.47,0,0,1,3.06.42l.25,0a13.24,13.24,0,0,1,2.35.2c1,.12,1.9.27,2.85.42a.57.57,0,0,0,.43-.13L10,11a16.72,16.72,0,0,1,2-1.24,1.61,1.61,0,0,0,.3-.21c.39-.37.79-.73,1.17-1.1s.59-.6.88-.9c.1-.09.18-.2.28-.29s.12-.19,0-.31a.54.54,0,0,0-.85-.14c-.53.35-1,.71-1.58,1a3.71,3.71,0,0,1-1.29.47A3.32,3.32,0,0,0,10.28,8.48Z"/><path class="cls-1" d="M10.54,2.52c0,.91,0,1.79,0,2.67A1.4,1.4,0,0,1,9.17,6.45c-.72,0-1.44,0-2.16,0-.48,0-1,0-1.45,0A1.48,1.48,0,0,1,4.13,5c0-1.17,0-2.33,0-3.5A1.47,1.47,0,0,1,5.6,0C6.77,0,7.94,0,9.1,0a1.43,1.43,0,0,1,.74.21L9.25,1a.14.14,0,0,1-.09,0H5.71a.54.54,0,0,0-.62.62V4.89a.55.55,0,0,0,.61.62H9a.55.55,0,0,0,.6-.59c0-.38,0-.76,0-1.13a.31.31,0,0,1,0-.17Z"/><path class="cls-1" d="M7.6,3.78l.57-.68C9,2.14,9.74,1.17,10.53.22A.72.72,0,0,1,10.86,0a.45.45,0,0,1,.49.23.5.5,0,0,1-.06.56c-.33.4-.66.81-1,1.21L8.06,4.74a.5.5,0,0,1-.84,0L5.74,3.27a.49.49,0,0,1-.1-.59.45.45,0,0,1,.53-.23.59.59,0,0,1,.27.17c.36.34.7.7,1,1A1.14,1.14,0,0,0,7.6,3.78Z"/><path class="cls-1" d="M12.07,7.71a.8.8,0,0,0-.53,0,9.16,9.16,0,0,1-2,.46l.69.27a.17.17,0,0,0,.11,0l.75-.25,1-.41Z"/></g></g></svg>