<svg xmlns="http://www.w3.org/2000/svg" viewBox="0 0 60.9 21.09"><defs><style>.cls-1{fill:none;stroke:#221c1d;stroke-miterlimit:10;}.cls-2{fill:#221c1d;}</style></defs><title>icon-containers-black</title><g id="Layer_2" data-name="Layer 2"><g id="Waste_Audit" data-name="Waste Audit"><path class="cls-1" d="M30.46,8.22H58.2a2.17,2.17,0,0,1,1.43.28,1.69,1.69,0,0,1,.73,1.79,1.72,1.72,0,0,1-1.64,1.36,18.74,18.74,0,0,1-2.12,0,.86.86,0,0,0-1,.61c-.82,1.81-1.69,3.61-2.53,5.41a4.7,4.7,0,0,1-4.62,2.92q-18,0-36.09,0A4.66,4.66,0,0,1,7.69,17.5C6.93,15.72,6,14,5.22,12.23a.81.81,0,0,0-.89-.58c-.63,0-1.26,0-1.89,0A1.76,1.76,0,0,1,.5,9.93,1.72,1.72,0,0,1,2.43,8.22l11.8,0H30.46Z"/><path class="cls-2" d="M30.36,7.32H3.64l-.78,0c-.49,0-.67-.42-.76-.8a.84.84,0,0,1,.49-1A.75.75,0,0,1,3,5.39C4.52,5.76,5,4.72,5.4,3.66A5.25,5.25,0,0,1,9.5.11,7.31,7.31,0,0,1,10.83,0c12.9,0,25.79,0,38.69,0,2.84,0,4.87,1,5.94,3.73a2,2,0,0,1,.1.21c.31,1,.8,1.68,2,1.46a.94.94,0,0,1,1.12.86.92.92,0,0,1-.77,1,3,3,0,0,1-.79,0ZM6.74,5.38H53.62c.3,0,.32-.15.25-.41a3.79,3.79,0,0,0-3.74-3Q30.47,2,10.8,2a3.62,3.62,0,0,0-2.37.64C7.59,3.29,7.33,4.34,6.74,5.38Z"/></g></g></svg>