<svg xmlns="http://www.w3.org/2000/svg" viewBox="0 0 12.1 22.33"><defs><style>.cls-1{fill:#c0bbb2;}</style></defs><title>icon-beverage-bottle</title><g id="Layer_2" data-name="Layer 2"><g id="Main_Page" data-name="Main Page"><path class="cls-1" d="M11.69,6.73A5.77,5.77,0,0,0,7.35,2.31H7.22V0H4.88V2.3H4.75A5.77,5.77,0,0,0,.41,6.73H0V9.14H.63l.64,13.19h9.57l.63-13.19h.63V6.73ZM11.56,8.6H11l-.64,13.2H1.78L1.14,8.6H.54V7.27H.86a5.25,5.25,0,0,1,4-4.44h.54V.54H6.69V2.83h.54a5.25,5.25,0,0,1,4,4.44h.32Z"/><path class="cls-1" d="M0,7V8.89H12V7Zm11.51,1.5H.51V7.39h11Z"/></g></g></svg>