<svg xmlns="http://www.w3.org/2000/svg" viewBox="0 0 29.01 22.16"><defs><style>.cls-1{fill:#c0bbb2;}</style></defs><title>icon-cigarette</title><g id="Layer_2" data-name="Layer 2"><g id="Main_Page" data-name="Main Page"><path class="cls-1" d="M6.07,5.43C6.07,1.28,3.55.09,3.44,0A.4.4,0,0,0,3,.09a.45.45,0,0,0-.17.42c.48,3.8-.45,4.69-1.34,5.54A4,4,0,0,0,0,9.42,7.42,7.42,0,0,0,2.58,14.6a.48.48,0,0,0,.28.1.41.41,0,0,0,.32-.15.45.45,0,0,0,0-.61,4.16,4.16,0,0,1-.42-2.25A3.36,3.36,0,0,1,4.13,9.28,5,5,0,0,0,6.07,5.43Zm-.86,0a4.16,4.16,0,0,1-1.67,3.2,4.14,4.14,0,0,0-1.66,3.06c0,.31,0,.58,0,.83a5.63,5.63,0,0,1-1-3.1A3.11,3.11,0,0,1,2.08,6.71c.93-.88,2-1.87,1.71-5.33A5.43,5.43,0,0,1,5.21,5.43Z"/><path class="cls-1" d="M0,16.25v5.46a.44.44,0,0,0,.43.45H6.86a.44.44,0,0,0,.43-.45h0a.44.44,0,0,0-.43-.45H3.45V16.7H17.82v4.56h-9a.44.44,0,0,0-.43.45h0a.44.44,0,0,0,.43.45H28.58a.44.44,0,0,0,.43-.45V16.25a.44.44,0,0,0-.43-.45H25.4a.44.44,0,0,0-.43.45h0a.44.44,0,0,0,.43.45h2.75v4.56H20.57V16.7h2.82a.44.44,0,0,0,.43-.45h0a.44.44,0,0,0-.43-.45H.47A.44.44,0,0,0,0,16.25Zm18.64.45h1v4.56h-1ZM.9,16.7H2.59v4.56H.9Z"/><rect class="cls-1" x="22.44" y="15.8" width="4.62" height="0.9"/><rect class="cls-1" x="5.38" y="21.26" width="4.62" height="0.9"/></g></g></svg>