<svg xmlns="http://www.w3.org/2000/svg" viewBox="0 0 22.46 41.46"><defs><style>.cls-1{fill:#221c1d;}</style></defs><title>icon-beverage-bottle-black</title><g id="Layer_2" data-name="Layer 2"><g id="Waste_Audit" data-name="Waste Audit"><path class="cls-1" d="M21.71,12.49a10.73,10.73,0,0,0-8.06-8.2l-.11,0h-.13V0H9.05V4.26H8.93l-.11,0a10.74,10.74,0,0,0-8.07,8.2H0V17H1.17l1.18,24.5H20.11L21.29,17h1.17V12.49ZM21.46,16H20.34L19.16,40.46H3.3L2.12,16H1V13.49h.59A9.73,9.73,0,0,1,9,5.26h1V1h2.36V5.26h1a9.73,9.73,0,0,1,7.45,8.23h.59Z"/><path class="cls-1" d="M0,12.92v3.59H22.31V12.92Zm21.37,2.79H1v-2H21.37Z"/></g></g></svg>