<svg xmlns="http://www.w3.org/2000/svg" viewBox="0 0 32.52 11.22"><defs><style>.cls-1,.cls-2{fill:none;stroke-miterlimit:10;stroke-width:0.25px;}.cls-1{stroke:#fff;}.cls-2{stroke:#c0bbb2;}.cls-3{fill:#c0bbb2;}</style></defs><title>icon-containers</title><g id="Layer_2" data-name="Layer 2"><g id="Main_Page" data-name="Main Page"><path class="cls-1" d="M16.27,4.43H31.21a1.15,1.15,0,0,1,.77.15.9.9,0,0,1,.39,1,.92.92,0,0,1-.88.74,10.84,10.84,0,0,1-1.14,0,.45.45,0,0,0-.51.32c-.45,1-.91,2-1.37,2.92A2.52,2.52,0,0,1,26,11.09H6.54A2.52,2.52,0,0,1,4,9.43c-.41-1-.89-1.89-1.33-2.84a.43.43,0,0,0-.48-.31c-.34,0-.68,0-1,0a.94.94,0,0,1-1-.93.92.92,0,0,1,1-.92l6.36,0h8.75Z"/><path class="cls-2" d="M16.27,4.43H31.21a1.15,1.15,0,0,1,.77.15.9.9,0,0,1,.39,1,.92.92,0,0,1-.88.74,10.84,10.84,0,0,1-1.14,0,.45.45,0,0,0-.51.32c-.45,1-.91,2-1.37,2.92A2.52,2.52,0,0,1,26,11.09H6.54A2.52,2.52,0,0,1,4,9.43c-.41-1-.89-1.89-1.33-2.84a.43.43,0,0,0-.48-.31c-.34,0-.68,0-1,0a.94.94,0,0,1-1-.93.92.92,0,0,1,1-.92l6.36,0h8.75Z"/><path class="cls-3" d="M16.21,3.94H1.39C1.13,3.91,1,3.7,1,3.5A.45.45,0,0,1,1.25,3a.55.55,0,0,1,.24-.07c.8.2,1-.36,1.27-.93A2.86,2.86,0,0,1,5,.06a4.36,4.36,0,0,1,.72,0c7,0,13.9,0,20.85,0a3.06,3.06,0,0,1,3.2,2s0,.07.05.11c.17.54.43.91,1.09.79a.5.5,0,0,1,.6.46.49.49,0,0,1-.41.56,2,2,0,0,1-.42,0Q23.42,4,16.21,3.94ZM3.49,2.9H28.74c.17,0,.18-.08.14-.22a2.06,2.06,0,0,0-2-1.61H5.67a1.91,1.91,0,0,0-1.27.35A4.41,4.41,0,0,0,3.49,2.9Z"/></g></g></svg>