<svg xmlns="http://www.w3.org/2000/svg" viewBox="0 0 4.26 3.03"><defs><style>.cls-1{fill:#221c1d;}</style></defs><title>icon-email</title><g id="Layer_2" data-name="Layer 2"><g id="Footer"><path class="cls-1" d="M0,0H0L.41.37,1.88,1.58a.39.39,0,0,0,.5,0L3.06,1,4.16.11,4.24,0a.08.08,0,0,0-.08,0H.08A.08.08,0,0,0,0,0Z"/><path class="cls-1" d="M.23,3H4l-.25-.19-1.31-1h0a.61.61,0,0,1-.56,0h0L.55,2.79Z"/><path class="cls-1" d="M4.26.34,2.63,1.69,4.26,2.9Z"/><path class="cls-1" d="M0,2.9,1.63,1.69,0,.34Z"/></g></g></svg>