<svg xmlns="http://www.w3.org/2000/svg" viewBox="0 0 53.85 41.13"><defs><style>.cls-1{fill:#221c1d;}</style></defs><title>icon-cigarette-black</title><g id="Layer_2" data-name="Layer 2"><g id="Waste_Audit" data-name="Waste Audit"><path class="cls-1" d="M11.27,10.08c0-7.71-4.69-9.92-4.89-10a.78.78,0,0,0-.8.1.83.83,0,0,0-.31.77C6.16,8,4.44,9.64,2.78,11.23A7.36,7.36,0,0,0,0,17.48c0,5.6,4.59,9.45,4.78,9.61a.82.82,0,0,0,.53.19A.74.74,0,0,0,5.9,27a.82.82,0,0,0,0-1.12c-.08-.11-.79-1.2-.79-4.18,0-1.94,1.2-3.11,2.58-4.47C9.36,15.57,11.27,13.69,11.27,10.08Zm-1.59,0C9.68,13,8.17,14.45,6.57,16S3.49,19,3.49,21.7c0,.57,0,1.08.06,1.54A10.33,10.33,0,0,1,1.6,17.48a5.79,5.79,0,0,1,2.26-5C5.58,10.82,7.51,9,7,2.56,8.19,3.7,9.68,6,9.68,10.08Z"/><path class="cls-1" d="M.07,30.16V40.3a.82.82,0,0,0,.8.83H12.74a.82.82,0,0,0,.8-.83h0a.82.82,0,0,0-.8-.83H6.4V31H33.08v8.48H16.47a.82.82,0,0,0-.8.83h0a.82.82,0,0,0,.8.83H53.05a.82.82,0,0,0,.8-.83V30.16a.82.82,0,0,0-.8-.83H47.14a.82.82,0,0,0-.8.83h0a.82.82,0,0,0,.8.83h5.11v8.48H38.19V31h5.22a.82.82,0,0,0,.8-.83h0a.82.82,0,0,0-.8-.83H.87A.82.82,0,0,0,.07,30.16Zm34.6.83h1.92v8.48H34.67Zm-33,0H4.8v8.48H1.67Z"/><rect class="cls-1" x="41.66" y="29.33" width="8.58" height="1.66" transform="translate(91.89 60.32) rotate(-180)"/><rect class="cls-1" x="9.99" y="39.47" width="8.58" height="1.66" transform="translate(28.56 80.6) rotate(-180)"/></g></g></svg>