<svg xmlns="http://www.w3.org/2000/svg" viewBox="0 0 78.75 25.03"><defs><style>.cls-1{fill:#453d40;}.cls-2{fill:none;stroke:#453d40;stroke-miterlimit:10;stroke-width:0.5px;}.cls-3{fill:#57ac28;}.cls-4{fill:#d8a61e;}.cls-5{fill:#c40919;}.cls-6{fill:#438f24;}.cls-7{fill:#33682f;}.cls-8{fill:#f5b811;}.cls-9{fill:#f82b1b;}.cls-10{fill:#fb861b;}.cls-11{fill:#3e81b9;}.cls-12{fill:#92002e;}.cls-13{fill:#4fb8c3;}.cls-14{fill:#f95119;}.cls-15{fill:#f51428;}.cls-16{fill:#e00d5c;}.cls-17{fill:#132a50;}.cls-18{fill:#b77f12;}.cls-19{fill:#204f83;}</style></defs><title>logo</title><g id="Layer_2" data-name="Layer 2"><g id="Main_Page" data-name="Main Page"><path class="cls-1" d="M33.24,25V22.56h.22v.3a.66.66,0,0,1,.25-.27.65.65,0,0,1,.34-.1.72.72,0,0,1,.56.25,1,1,0,0,1,.21.65.93.93,0,0,1-.21.64.66.66,0,0,1-.55.25.66.66,0,0,1-.6-.38V25Zm1.34-1.64a.76.76,0,0,0-.15-.5.5.5,0,0,0-.4-.19.52.52,0,0,0-.42.18.74.74,0,0,0-.15.49.77.77,0,0,0,.16.5.53.53,0,0,0,.43.19.49.49,0,0,0,.39-.17A.82.82,0,0,0,34.58,23.39Z"/><path class="cls-1" d="M37.09,24.2v-.3a.65.65,0,0,1-.23.28.68.68,0,0,1-.35.1.7.7,0,0,1-.57-.25.89.89,0,0,1-.22-.64,1,1,0,0,1,.22-.65.7.7,0,0,1,.55-.25.69.69,0,0,1,.36.1.64.64,0,0,1,.24.27v-.3h.23V24.2ZM36,23.4a.72.72,0,0,0,.14.49.56.56,0,0,0,.82,0,.79.79,0,0,0,.15-.52.68.68,0,0,0-.15-.47.54.54,0,0,0-.81,0A.78.78,0,0,0,36,23.4Z"/><path class="cls-1" d="M38.73,22.89a.93.93,0,0,1,.25-.31.45.45,0,0,1,.28-.09h.1l.1,0-.08.21h-.15a.44.44,0,0,0-.36.19.83.83,0,0,0-.14.48v.81H38.5V22.56h.23Z"/><path class="cls-1" d="M40.32,22.75H40v-.19h.3v-.68h.22v.68h.33v.19h-.33V24.2h-.22Z"/><path class="cls-1" d="M41.79,24.2V22.56H42v.25a.71.71,0,0,1,.25-.24.74.74,0,0,1,.34-.08.6.6,0,0,1,.43.16.57.57,0,0,1,.16.44V24.2H43v-1a.54.54,0,0,0-.11-.37.39.39,0,0,0-.32-.12.44.44,0,0,0-.38.16.77.77,0,0,0-.12.48v.86Z"/><path class="cls-1" d="M45.76,23.39H44.45a.77.77,0,0,0,.16.5.49.49,0,0,0,.4.18.51.51,0,0,0,.32-.1.67.67,0,0,0,.23-.3l.21.12a1,1,0,0,1-.31.37.79.79,0,0,1-.45.12.75.75,0,0,1-.59-.25.88.88,0,0,1-.22-.63,1,1,0,0,1,.22-.66.76.76,0,0,1,.58-.25.72.72,0,0,1,.55.23.9.9,0,0,1,.21.62Zm-.27-.2a.6.6,0,0,0-.15-.35.53.53,0,0,0-.37-.12.49.49,0,0,0-.35.13.55.55,0,0,0-.16.34Z"/><path class="cls-1" d="M47,22.89a1.07,1.07,0,0,1,.25-.31.47.47,0,0,1,.28-.09h.1l.1,0-.08.21h-.15a.42.42,0,0,0-.35.19.76.76,0,0,0-.15.48v.81H46.8V22.56H47Z"/><path class="cls-1" d="M48.53,21.91a.17.17,0,0,1,.18-.17.13.13,0,0,1,.12.05.14.14,0,0,1,.06.12.18.18,0,1,1-.36,0Zm.06,2.29V22.56h.23V24.2Z"/><path class="cls-1" d="M50,24.2V22.56h.22v.25a.78.78,0,0,1,.24-.24.74.74,0,0,1,.34-.08.62.62,0,0,1,.44.16.6.6,0,0,1,.15.44V24.2h-.23v-1a.55.55,0,0,0-.1-.37.41.41,0,0,0-.32-.12.46.46,0,0,0-.39.16.77.77,0,0,0-.12.48v.86Z"/><path class="cls-1" d="M54,22.56v1.36c0,.21,0,.38,0,.49a.71.71,0,0,1-.06.26.57.57,0,0,1-.26.27,1,1,0,0,1-.45.09.92.92,0,0,1-.51-.12.55.55,0,0,1-.22-.39h.28a.34.34,0,0,0,.15.23.58.58,0,0,0,.32.08.76.76,0,0,0,.27,0,.42.42,0,0,0,.19-.15,1.16,1.16,0,0,0,.06-.15,1.56,1.56,0,0,0,0-.25V23.9a.63.63,0,0,1-.23.28.75.75,0,0,1-.36.1.68.68,0,0,1-.55-.24,1,1,0,0,1-.21-.65,1,1,0,0,1,.21-.65.72.72,0,0,1,.56-.25.66.66,0,0,1,.36.11.51.51,0,0,1,.22.26v-.3Zm-.78.14a.52.52,0,0,0-.41.19,1,1,0,0,0,0,1,.47.47,0,0,0,.38.17.55.55,0,0,0,.43-.18.82.82,0,0,0,.16-.51.74.74,0,0,0-.15-.49A.51.51,0,0,0,53.24,22.7Z"/><path class="cls-1" d="M56.93,24.2V22.75h-.31v-.19h.31v-.48a1.41,1.41,0,0,1,.09-.64.37.37,0,0,1,.34-.15h.12a.17.17,0,0,1,.1,0l0,.2-.09,0h-.07a.18.18,0,0,0-.17.1.7.7,0,0,0-.06.35v.63h.37v.19h-.37V24.2Z"/><path class="cls-1" d="M59.18,24.28a1,1,0,0,1-.34-.07,1.15,1.15,0,0,1-.29-.2.7.7,0,0,1-.19-.29.77.77,0,0,1-.07-.34.8.8,0,0,1,.07-.34.91.91,0,0,1,.19-.29,1.12,1.12,0,0,1,.29-.19,1,1,0,0,1,.34-.07,1,1,0,0,1,.35.07,1.12,1.12,0,0,1,.29.19A.77.77,0,0,1,60,23a.8.8,0,0,1,.07.34.82.82,0,0,1-.26.63,1,1,0,0,1-.29.2A1,1,0,0,1,59.18,24.28Zm0-.22a.62.62,0,0,0,.46-.19.71.71,0,0,0,0-1,.62.62,0,0,0-.46-.19.6.6,0,0,0-.46.19.66.66,0,0,0-.19.49.65.65,0,0,0,.19.48A.6.6,0,0,0,59.19,24.06Z"/><path class="cls-1" d="M61.36,22.89a.92.92,0,0,1,.24-.31.48.48,0,0,1,.29-.09H62l.1,0-.07.21h-.16a.43.43,0,0,0-.35.19.76.76,0,0,0-.14.48v.81h-.23V22.56h.23Z"/><path class="cls-1" d="M65.85,22.86a.64.64,0,0,0-.25-.12.8.8,0,0,0-.27,0,.62.62,0,0,0-.48.19.72.72,0,0,0-.19.53.65.65,0,0,0,.67.66.84.84,0,0,0,.27,0,1.15,1.15,0,0,0,.27-.14v.25a1.08,1.08,0,0,1-.27.1,1.48,1.48,0,0,1-.31,0,.84.84,0,0,1-.62-.24.89.89,0,0,1-.24-.64.85.85,0,0,1,.25-.65.9.9,0,0,1,.66-.26,1.27,1.27,0,0,1,.28,0,.92.92,0,0,1,.23.09Z"/><path class="cls-1" d="M66.87,24.2V21.32h.22v1.49a.71.71,0,0,1,.25-.24.67.67,0,0,1,.33-.08.62.62,0,0,1,.44.16.6.6,0,0,1,.15.44V24.2H68v-1a.55.55,0,0,0-.1-.37.41.41,0,0,0-.32-.12.46.46,0,0,0-.39.16.77.77,0,0,0-.12.48v.86Z"/><path class="cls-1" d="M70.64,24.2v-.3a.58.58,0,0,1-.23.28.62.62,0,0,1-.34.1.73.73,0,0,1-.58-.25.93.93,0,0,1-.21-.64,1,1,0,0,1,.21-.65.71.71,0,0,1,.55-.25.76.76,0,0,1,.37.1.56.56,0,0,1,.23.27v-.3h.23V24.2Zm-1.11-.8a.72.72,0,0,0,.15.49.48.48,0,0,0,.41.17.49.49,0,0,0,.41-.19.79.79,0,0,0,.15-.52.68.68,0,0,0-.15-.47.51.51,0,0,0-.41-.18.52.52,0,0,0-.41.19A.78.78,0,0,0,69.53,23.4Z"/><path class="cls-1" d="M72.06,24.2V22.56h.21v.25a.71.71,0,0,1,.25-.24.74.74,0,0,1,.34-.08.6.6,0,0,1,.43.16.57.57,0,0,1,.16.44V24.2h-.23v-1a.54.54,0,0,0-.11-.37.39.39,0,0,0-.31-.12.45.45,0,0,0-.39.16.77.77,0,0,0-.12.48v.86Z"/><path class="cls-1" d="M76.06,22.56v1.36a3.26,3.26,0,0,1,0,.49,1.08,1.08,0,0,1-.05.26.59.59,0,0,1-.27.27.93.93,0,0,1-.44.09.92.92,0,0,1-.51-.12.56.56,0,0,1-.23-.39h.29a.36.36,0,0,0,.14.23.62.62,0,0,0,.33.08.76.76,0,0,0,.27,0,.45.45,0,0,0,.18-.15.34.34,0,0,0,.06-.15,1.29,1.29,0,0,0,0-.25V23.9a.63.63,0,0,1-.23.28.75.75,0,0,1-.36.1.7.7,0,0,1-.56-.24,1,1,0,0,1-.21-.65.92.92,0,0,1,.22-.65.71.71,0,0,1,.56-.25.61.61,0,0,1,.35.11.53.53,0,0,1,.23.26v-.3Zm-.79.14a.5.5,0,0,0-.4.19.76.76,0,0,0-.15.5.82.82,0,0,0,.14.5.49.49,0,0,0,.39.17.52.52,0,0,0,.42-.18.76.76,0,0,0,.16-.51.74.74,0,0,0-.15-.49A.48.48,0,0,0,75.27,22.7Z"/><path class="cls-1" d="M78.66,23.39H77.35a.77.77,0,0,0,.16.5.49.49,0,0,0,.4.18.51.51,0,0,0,.32-.1.67.67,0,0,0,.23-.3l.21.12a.89.89,0,0,1-.31.37.79.79,0,0,1-.45.12.72.72,0,0,1-.58-.25.89.89,0,0,1-.23-.63,1,1,0,0,1,.22-.66.76.76,0,0,1,.58-.25.7.7,0,0,1,.55.23.9.9,0,0,1,.21.62Zm-.27-.2a.5.5,0,0,0-.15-.35.53.53,0,0,0-.37-.12.47.47,0,0,0-.34.13.51.51,0,0,0-.17.34Z"/><path class="cls-1" d="M3.61,19.31V11.13H5.87v8.18Z"/><path class="cls-1" d="M7.4,19.31V11.13H9.48v1.26a3.23,3.23,0,0,1,1-1,2.18,2.18,0,0,1,1.2-.34,1.54,1.54,0,0,1,1.64,1.35,3.6,3.6,0,0,1,1-1A2.09,2.09,0,0,1,15.41,11a1.31,1.31,0,0,1,1.25.62A5.82,5.82,0,0,1,17,14.2v5.11H14.8v-5a2.15,2.15,0,0,0-.15-1,.56.56,0,0,0-.52-.26.7.7,0,0,0-.63.29,2,2,0,0,0-.19,1v4.86h-2.2v-5a2.21,2.21,0,0,0-.15-1,.57.57,0,0,0-.52-.28.69.69,0,0,0-.64.31,2,2,0,0,0-.2,1v4.86Z"/><path class="cls-1" d="M18.46,22.6V11.13h2.12v1.25a3,3,0,0,1,.84-1,1.64,1.64,0,0,1,1-.33,2,2,0,0,1,1.78,1.1,6.3,6.3,0,0,1,.63,3.12,6.52,6.52,0,0,1-.62,3.13,1.91,1.91,0,0,1-1.73,1.11,1.73,1.73,0,0,1-1.06-.35,2.72,2.72,0,0,1-.78-1V22.6Zm3.18-9.71a.8.8,0,0,0-.77.51,4.34,4.34,0,0,0-.24,1.69,5.22,5.22,0,0,0,.23,1.82.77.77,0,0,0,.75.54.79.79,0,0,0,.74-.58,5.38,5.38,0,0,0,.23-1.82,4.42,4.42,0,0,0-.22-1.65A.75.75,0,0,0,21.64,12.89Z"/><path class="cls-1" d="M32.06,19.31H29.94V18.1a2.88,2.88,0,0,1-.82,1,1.73,1.73,0,0,1-1,.34,2,2,0,0,1-1.79-1.09,6.46,6.46,0,0,1-.62-3.14,6.08,6.08,0,0,1,.64-3.09A2,2,0,0,1,28.12,11a1.64,1.64,0,0,1,1,.33,3.14,3.14,0,0,1,.83,1V11.13h2.12Zm-2.12-4.22a3.9,3.9,0,0,0-.26-1.66.85.85,0,0,0-.81-.54.73.73,0,0,0-.71.52,4.55,4.55,0,0,0-.23,1.69,4.77,4.77,0,0,0,.25,1.75.79.79,0,0,0,1.52,0A4.81,4.81,0,0,0,29.94,15.09Z"/><path class="cls-1" d="M37.87,13.45a2.25,2.25,0,0,0-.51-.29,1.52,1.52,0,0,0-.51-.09,1.2,1.2,0,0,0-1,.56,2.66,2.66,0,0,0-.38,1.52,2.72,2.72,0,0,0,.38,1.56,1.29,1.29,0,0,0,1.1.55,1.18,1.18,0,0,0,.5-.11,1.34,1.34,0,0,0,.45-.32V19a2.67,2.67,0,0,1-.74.36,2.74,2.74,0,0,1-.81.12A2.68,2.68,0,0,1,34,18.32a5.18,5.18,0,0,1-.85-3.12A5.09,5.09,0,0,1,34,12.12,2.71,2.71,0,0,1,36.32,11a4.07,4.07,0,0,1,.79.07,5.15,5.15,0,0,1,.76.24Z"/><path class="cls-1" d="M39.67,19.31V12.89h-.89V11.13h.89V8.77h2.26v2.36h.89v1.76h-.89v6.42Z"/><path class="cls-2" d="M55.56,11.13v4.23a5.72,5.72,0,0,1-.65,3.28,2.85,2.85,0,0,1-2.34.82,2.87,2.87,0,0,1-2.36-.82,5.7,5.7,0,0,1-.65-3.28V11.13h2.2v5.26a1.58,1.58,0,0,0,.17.87.75.75,0,0,0,.62.22.74.74,0,0,0,.62-.23,1.48,1.48,0,0,0,.18-.86V11.13Z"/><path class="cls-2" d="M57.21,19.31V12.89h-.89V11.13h.89V8.77h2.25v2.36h.9v1.76h-.9v6.42Z"/><path class="cls-2" d="M61.08,8.94A1.31,1.31,0,0,1,61.46,8,1.29,1.29,0,0,1,63.3,8a1.27,1.27,0,0,1,.38.93,1.24,1.24,0,0,1-.38.91,1.27,1.27,0,0,1-.91.37,1.23,1.23,0,0,1-.93-.37A1.21,1.21,0,0,1,61.08,8.94Zm.17,10.37V11.13h2.26v8.18Z"/><path class="cls-2" d="M71.43,15.2a4.8,4.8,0,0,1-.93,3.11A3.05,3.05,0,0,1,68,19.46a3,3,0,0,1-2.48-1.15,4.78,4.78,0,0,1-.92-3.11,4.73,4.73,0,0,1,.92-3.08A3,3,0,0,1,68,11a3,3,0,0,1,2.49,1.14A4.81,4.81,0,0,1,71.43,15.2ZM68,17.48a1,1,0,0,0,.93-.59,3.59,3.59,0,0,0,.33-1.7A3.54,3.54,0,0,0,69,13.5a1,1,0,0,0-1.86,0,3.7,3.7,0,0,0-.32,1.7,3.7,3.7,0,0,0,.32,1.7A1,1,0,0,0,68,17.48Z"/><path class="cls-2" d="M76.25,19.31v-5a2,2,0,0,0-.17-1,.63.63,0,0,0-.57-.26.66.66,0,0,0-.62.31,2,2,0,0,0-.19,1v4.86H72.44V11.13h2.1v1.26a3.11,3.11,0,0,1,1-1A2.28,2.28,0,0,1,76.79,11a1.53,1.53,0,0,1,1.34.54,4.19,4.19,0,0,1,.37,2.14v5.59Z"/><path class="cls-3" d="M2.44,3.39a2.51,2.51,0,0,1,.42-.55L1.47,1.31A5.21,5.21,0,0,0,.58,2.46Z"/><path class="cls-4" d="M5.85,2.31a2.46,2.46,0,0,1,.58.36l1.4-1.52A4.68,4.68,0,0,0,6.59.38Z"/><path class="cls-5" d="M9.05,2.77,7.2,3.69a2.84,2.84,0,0,1,.18.65l2.06-.19a4.57,4.57,0,0,0-.39-1.38"/><path class="cls-6" d="M7.06,3.42,8.91,2.5a4.87,4.87,0,0,0-.86-1.15L6.65,2.88a2.41,2.41,0,0,1,.41.54"/><path class="cls-7" d="M2.07,4.74V4.61L0,4.43c0,.1,0,.2,0,.31A4.75,4.75,0,0,0,.14,5.88l2-.57a2.69,2.69,0,0,1-.06-.57"/><path class="cls-8" d="M6.8,6.43a2.23,2.23,0,0,1-.5.47L7.39,8.66a4.75,4.75,0,0,0,1.06-1Z"/><path class="cls-9" d="M7.41,4.74a2.6,2.6,0,0,1-.06.56l2,.58a4.81,4.81,0,0,0,.14-1.14c0-.1,0-.2,0-.3l-2.06.2v.1"/><path class="cls-10" d="M2.71,6.47,1.06,7.72a4.53,4.53,0,0,0,1.08,1L3.22,6.94a2.85,2.85,0,0,1-.51-.47"/><path class="cls-11" d="M2.1,4.31a2.52,2.52,0,0,1,.2-.66L.45,2.73A4.52,4.52,0,0,0,0,4.13Z"/><path class="cls-12" d="M7.14,8.82,6.05,7.06a2.47,2.47,0,0,1-.63.26l.38,2a5.09,5.09,0,0,0,1.34-.54"/><path class="cls-13" d="M7.27,5.59a2.77,2.77,0,0,1-.29.6L8.63,7.43a4.71,4.71,0,0,0,.63-1.27Z"/><path class="cls-14" d="M5.12,7.38a2.34,2.34,0,0,1-.38,0l-.31,0L4,9.42a4,4,0,0,0,.7.05,4.9,4.9,0,0,0,.77-.06Z"/><path class="cls-15" d="M4.91,2.07a2.86,2.86,0,0,1,.66.13L6.31.27A4.64,4.64,0,0,0,4.91,0Z"/><path class="cls-16" d="M4.13,7.34a2.83,2.83,0,0,1-.65-.25L2.39,8.85a4.67,4.67,0,0,0,1.36.52Z"/><path class="cls-17" d="M3.93,2.19a2.62,2.62,0,0,1,.68-.12V0A4.47,4.47,0,0,0,3.19.26Z"/><path class="cls-18" d="M2.53,6.23a2.49,2.49,0,0,1-.32-.63l-2,.57A4.89,4.89,0,0,0,.88,7.48Z"/><path class="cls-19" d="M3.08,2.64a3.08,3.08,0,0,1,.58-.35L2.91.37a4.57,4.57,0,0,0-1.22.74Z"/><polygon class="cls-2" points="43.79 8.77 46.19 8.77 46.19 16.93 48.96 16.93 48.96 19.31 43.79 19.31 43.79 8.77"/></g></g></svg>